<?xml version="1.0" encoding="UTF-8"?>
<svg id="Layer_2" data-name="Layer 2" xmlns="http://www.w3.org/2000/svg" viewBox="0 0 361.7 562.37">
  <defs>
    <style>
      .cls-1 {
        fill: #fff;
      }

      .cls-2 {
        fill: #a791ae;
      }

      .cls-3 {
        fill: #c7b2ce;
      }

      .cls-4 {
        fill: #e1d0e6;
      }
    </style>
  </defs>
  <g id="Layer_1-2" data-name="Layer 1">
    <g>
      <polyline class="cls-3" points="361.7 275.94 242.3 0 110.87 0 203.15 279.34"/>
      <polygon class="cls-2" points="361.7 275.94 251.14 562.37 122.91 562.37 203.15 279.34 361.7 275.94"/>
      <polygon class="cls-4" points="110.87 0 27.11 281.72 122.91 562.37 203.15 279.34 110.87 0"/>
      <polygon class="cls-1" points="108.51 281.72 99.11 233.85 79 223.46 100.46 212.28 111.31 186.65 121.56 213.06 145.08 228.06 121.34 235.42 108.51 281.72"/>
      <polygon class="cls-1" points="68.09 228.53 43.29 132.43 0 114.75 43.84 88.15 63.9 33.92 88.21 86.06 139.15 112.56 90.11 131.74 68.09 228.53"/>
      <polygon class="cls-1" points="32.02 302.05 23.34 266.12 7.71 259.29 23.68 249.63 31.12 229.54 39.77 249.1 58.15 259.26 40.31 266.13 32.02 302.05"/>
    </g>
  </g>
</svg>