<?xml version="1.0" encoding="UTF-8"?>
<svg id="Layer_2" data-name="Layer 2" xmlns="http://www.w3.org/2000/svg" viewBox="0 0 742.25 648.42">
  <defs>
    <style>
      .cls-1 {
        fill: #e3f3ff;
      }

      .cls-1, .cls-2 {
        stroke: #618faa;
        stroke-miterlimit: 10;
        stroke-width: .25px;
      }

      .cls-2 {
        fill: #fff;
      }
    </style>
  </defs>
  <g id="Layer_1-2" data-name="Layer 1">
    <path class="cls-2" d="M742.11,324.43s-18,37.79-22.83,41.57c-4.83,3.78-28.03,3.27-31.24.09-3.21-3.18-12.66-15.26-11.18-18.57,1.48-3.31,6.47-12.28,6.12-13.58-.34-1.3-10.22-1.32-12.7,2.95-2.48,4.27-8.02,10.79-19.55,3.71,0,0-8.04,14.58-18.47,2.25,0,0-21.86,18.59-29.23-5.43l-30.2.86,48.62,37.09c3.2,3,4.23,7.66,2.59,11.73l-10.96,27.3c-1.96,4.88-7.66,7.07-12.39,4.76l-21.51-10.53c-3.53-1.73-5.95-5.14-6.4-9.05l-15.35-55.73c-.82-2.97-3.35-5.15-6.41-5.52l-9.34-1.12,13.45,52.52c1.91,3.58,1.46,7.96-1.15,11.07h0c-3.21,3.83-8.42,5.32-13.17,3.76l-33.46-11.01c-4.22-1.39-6.97-5.44-6.71-9.87l27.35-48.05-48.82,1.76s3.51,6.04-17.99,3.29l10.65,10.07c1.05.99,1.29,2.56.6,3.82l-4.99,9.13c-.73,1.34-2.06,2.25-3.57,2.44l-7.49.98c-2.22.29-4.34-1.03-5.05-3.16l-6.38-19.12-5.1.92c-2.23.4-4.53-.2-6.28-1.64l-6.63-5.49c-6.45,4.79-14.73,6.62-24.41,4.59h0c6.56,7.4,9.19,15.3,8.23,23.28l8.05,3.04c2.12.8,3.78,2.5,4.54,4.63l1.73,4.89,19.77-3.94c2.2-.44,4.4.74,5.25,2.82l2.86,6.99c.58,1.41.45,3.01-.35,4.31l-5.46,8.86c-.75,1.23-2.24,1.79-3.62,1.37l-14.02-4.26c13.05,17.31,6.06,17.26,6.06,17.26l22.67,43.27,28.17-47.58c3.72-2.42,8.6-2.04,11.9.94l26.15,23.6c3.71,3.35,5,8.61,3.27,13.3h0c-1.41,3.8-4.99,6.37-9.04,6.49l-52.28,14.36,5.61,7.56c1.84,2.48,4.99,3.59,7.97,2.83l56.01-14.3c3.62-1.54,7.78-1.14,11.03,1.07l19.81,13.46c4.35,2.96,5.28,8.99,2.01,13.12l-18.28,23.05c-2.72,3.44-7.28,4.85-11.47,3.56l-56.31-23.84,14.22,26.65c24.52-5.51,19.21,22.69,19.21,22.69,15.88,2.95,7.21,17.16,7.21,17.16,11.87,6.51,8.95,14.55,6.47,18.82s2.43,12.83,3.73,12.49,6.61-9.12,8.75-12.05c2.14-2.93,17.32-.71,21.67.5,4.35,1.21,16.3,21.1,15.41,27.18-.89,6.07-23.74,40.16-23.74,40.16h0s-39.05,2.69-44.75.41c-5.7-2.28-16.9-22.6-15.76-26.97s6.84-18.61,10.45-18.99,13.87-.57,14.81-1.52c.95-.95-3.99-9.5-8.93-9.5-4.94,0-13.36-1.52-13.03-15.04,0,0-16.64.37-11.22-14.85,0,0-27.06-9.57-9.98-28.01l-15.91-25.68-7.66,60.67c-.99,4.27-4.5,7.5-8.84,8.13l-29.11,4.23c-5.21.76-9.96-3.07-10.33-8.32l-1.69-23.89c-.28-3.93,1.46-7.72,4.61-10.08l40.49-41.26c2.16-2.2,2.77-5.49,1.55-8.32l-3.72-8.64-38.67,38c-2.14,3.45-6.15,5.26-10.15,4.56h0c-4.92-.85-8.83-4.62-9.86-9.5l-7.28-34.46c-.92-4.34,1.2-8.76,5.16-10.76l55.29-.47-26.04-41.33s-3.46,6.07-11.88-13.91l-3.36,14.27c-.33,1.4-1.56,2.41-3,2.44l-10.41.27c-1.52.04-2.98-.65-3.91-1.86l-4.61-5.99c-1.37-1.78-1.28-4.27.2-5.95l13.33-15.12-3.36-3.95c-1.47-1.73-2.1-4.02-1.73-6.25l1.42-8.49c-7.39-3.17-13.12-9.42-16.23-18.8h0c-3.1,9.39-8.62,15.63-16,18.8l1.42,8.49c.37,2.24-.26,4.53-1.73,6.25l-3.36,3.95,13.33,15.12c1.48,1.68,1.57,4.18.2,5.95l-4.61,5.99c-.93,1.21-2.38,1.9-3.91,1.86l-10.41-.27c-1.44-.04-2.67-1.04-3-2.44l-3.36-14.27c-8.42,19.98-11.88,13.91-11.88,13.91l-26.04,41.33,55.29.47c3.96,2,6.08,6.42,5.16,10.76l-7.28,34.46c-1.03,4.89-4.94,8.65-9.86,9.5h0c-4,.69-8.01-1.11-10.15-4.56l-38.67-38-3.72,8.64c-1.22,2.83-.6,6.12,1.55,8.32l40.49,41.26c3.15,2.35,4.89,6.15,4.61,10.08l-1.69,23.89c-.37,5.25-5.13,9.08-10.33,8.32l-29.11-4.23c-4.34-.63-7.85-3.86-8.84-8.13l-7.66-60.67-15.91,25.68c17.08,18.44-9.98,28.01-9.98,28.01,5.42,15.22-11.22,14.85-11.22,14.85.33,13.53-8.09,15.04-13.03,15.04-4.94,0-9.88,8.55-8.93,9.5s11.21,1.14,14.81,1.52,9.31,14.63,10.45,18.99-10.07,24.69-15.76,26.97-47.41-1.13-47.41-1.13h0s-22.84-34.49-23.7-40.56,11.18-25.91,15.54-27.1c4.36-1.19,19.55-3.34,21.67-.4s7.4,11.74,8.69,12.09,6.25-8.19,3.79-12.47c-2.46-4.28-5.34-12.34,6.56-18.79,0,0-8.61-14.25,7.29-17.12,0,0-5.17-28.23,19.32-22.6l14.35-26.59-56.43,23.57c-4.2,1.27-8.75-.17-11.45-3.62l-18.16-23.14c-3.25-4.14-2.3-10.17,2.07-13.11l19.87-13.36c3.27-2.2,7.42-2.58,11.04-1.02l55.94,14.57c2.98.78,6.14-.33,7.99-2.79l5.64-7.53-52.21-14.62c-4.05-.13-7.62-2.72-9.01-6.53h0c-1.71-4.69-.39-9.95,3.33-13.28l26.26-23.47c3.31-2.96,8.19-3.32,11.9-.88l27.94,47.72,22.88-43.16s-6.99.02,6.15-17.23l-14.04,4.19c-1.38.41-2.86-.16-3.61-1.39l-5.41-8.89c-.79-1.3-.92-2.91-.33-4.31l2.9-6.98c.86-2.07,3.07-3.24,5.26-2.79l19.75,4.03,1.75-4.88c.77-2.13,2.44-3.82,4.56-4.61l8.07-3c-.93-7.99,1.63-16.07,8.23-23.43h0c-9.69,1.98-17.84.31-24.27-4.52l-6.66,5.45c-1.75,1.44-4.05,2.03-6.28,1.61l-5.1-.95-6.48,19.09c-.72,2.12-2.84,3.44-5.06,3.14l-7.49-1.02c-1.51-.21-2.83-1.12-3.56-2.46l-4.95-9.16c-.68-1.27-.43-2.84.62-3.82l10.7-10.01c-21.52,2.64-17.98-3.38-17.98-3.38l-48.81-2,27.12,48.19c.24,4.43-2.54,8.47-6.76,9.83l-33.51,10.85c-4.75,1.54-9.96.02-13.15-3.82h0c-2.59-3.12-3.02-7.51-1.1-11.08l13.7-52.46-9.35,1.08c-3.06.35-5.61,2.52-6.44,5.49l-15.62,55.66c-.47,3.91-2.9,7.31-6.44,9.02l-21.56,10.43c-4.74,2.29-10.43.07-12.36-4.82l-10.83-27.36c-1.61-4.08-.56-8.73,2.65-11.72l48.8-36.85-30.19-1.01c-7.49,23.99-29.26,5.29-29.26,5.29-10.5,12.28-18.46-2.34-18.46-2.34-11.57,7.02-17.08.47-19.53-3.81-2.46-4.28-12.33-4.31-12.68-3.01-.35,1.3,4.59,10.29,6.06,13.6,1.47,3.32-8.05,15.35-11.27,18.52-3.22,3.16-26.43,3.56-31.24-.24-4.81-3.81-22.63-41.68-22.63-41.68H.14s18.51-36.32,23.34-40.1c4.83-3.78,28.03-3.27,31.24-.09,3.21,3.18,12.66,15.26,11.18,18.57-1.48,3.31-6.47,12.28-6.12,13.58.34,1.3,10.22,1.32,12.7-2.95,2.48-4.27,8.02-10.79,19.55-3.71,0,0,8.04-14.58,18.47-2.25,0,0,21.86-18.59,29.23,5.43l30.2-.86-48.62-37.08c-3.2-3-4.23-7.66-2.59-11.73l10.96-27.3c1.96-4.88,7.66-7.07,12.39-4.76l21.51,10.53c3.53,1.73,5.95,5.14,6.4,9.05l15.35,55.73c.82,2.97,3.35,5.15,6.41,5.52l9.34,1.12-13.45-52.52c-1.91-3.58-1.46-7.96,1.15-11.07h0c3.21-3.83,8.42-5.32,13.17-3.76l33.46,11.01c4.22,1.39,6.97,5.44,6.71,9.87l-27.35,48.05,48.82-1.76s-3.51-6.04,17.99-3.29l-10.65-10.07c-1.05-.99-1.29-2.56-.6-3.82l4.99-9.13c.73-1.34,2.06-2.25,3.57-2.44l7.49-.98c2.22-.29,4.34,1.03,5.05,3.16l6.38,19.12,5.1-.92c2.23-.4,4.53.2,6.28,1.64l6.63,5.49c6.45-4.79,14.73-6.62,24.41-4.59h0c-6.56-7.4-9.19-15.3-8.23-23.28l-8.05-3.04c-2.12-.8-3.78-2.5-4.54-4.63l-1.73-4.89-19.77,3.94c-2.2.44-4.4-.74-5.25-2.82l-2.86-6.99c-.58-1.41-.45-3.01.35-4.31l5.46-8.86c.75-1.23,2.24-1.79,3.62-1.37l14.02,4.26c-13.05-17.31-6.06-17.26-6.06-17.26l-22.67-43.27-28.17,47.58c-3.72,2.42-8.6,2.04-11.9-.94l-26.15-23.6c-3.71-3.35-5-8.61-3.27-13.3h0c1.41-3.8,4.99-6.37,9.04-6.49l52.28-14.36-5.61-7.56c-1.84-2.48-4.99-3.59-7.97-2.83l-56.01,14.3c-3.62,1.54-7.78,1.14-11.03-1.07l-19.81-13.46c-4.35-2.96-5.28-8.99-2.01-13.12l18.28-23.05c2.72-3.44,7.28-4.85,11.47-3.56l56.31,23.84-14.22-26.65c-24.52,5.51-19.21-22.69-19.21-22.69-15.88-2.95-7.21-17.16-7.21-17.16-11.87-6.51-8.95-14.55-6.47-18.82,2.48-4.27-2.43-12.83-3.73-12.49s-6.61,9.12-8.75,12.05-17.32.71-21.67-.5c-4.35-1.21-16.3-21.1-15.41-27.18.89-6.07,23.74-40.16,23.74-40.16h0s39.05-2.69,44.75-.41c5.7,2.28,16.9,22.6,15.76,26.97-1.14,4.37-6.84,18.61-10.45,18.99s-13.87.57-14.81,1.52c-.95.95,3.99,9.5,8.93,9.5s13.36,1.52,13.03,15.04c0,0,16.64-.37,11.22,14.85,0,0,27.06,9.57,9.98,28.01l15.91,25.68,7.66-60.67c.99-4.27,4.5-7.5,8.84-8.13l29.11-4.23c5.21-.76,9.96,3.07,10.33,8.32l1.69,23.89c.28,3.93-1.46,7.72-4.61,10.08l-40.49,41.26c-2.16,2.2-2.77,5.49-1.55,8.32l3.72,8.64,38.67-38c2.14-3.45,6.15-5.26,10.15-4.56h0c4.92.85,8.83,4.62,9.86,9.5l7.28,34.46c.92,4.34-1.2,8.76-5.16,10.76l-55.29.47,26.04,41.33s3.46-6.07,11.88,13.91l3.36-14.27c.33-1.4,1.56-2.41,3-2.44l10.41-.27c1.52-.04,2.98.65,3.91,1.86l4.61,5.99c1.37,1.78,1.28,4.27-.2,5.95l-13.33,15.12,3.36,3.95c1.47,1.73,2.1,4.02,1.73,6.25l-1.42,8.49c7.39,3.17,13.12,9.42,16.23,18.8h0c3.1-9.39,8.62-15.63,16-18.8l-1.42-8.49c-.37-2.24.26-4.53,1.73-6.25l3.36-3.95-13.33-15.12c-1.48-1.68-1.57-4.18-.2-5.95l4.61-5.99c.93-1.21,2.38-1.9,3.91-1.86l10.41.27c1.44.04,2.67,1.04,3,2.44l3.36,14.27c8.42-19.98,11.88-13.91,11.88-13.91l26.04-41.33-55.29-.47c-3.96-2-6.08-6.42-5.16-10.76l7.28-34.46c1.03-4.89,4.94-8.65,9.86-9.5h0c4-.69,8.01,1.11,10.15,4.56l38.67,38,3.72-8.64c1.22-2.83.6-6.12-1.55-8.32l-40.49-41.26c-3.15-2.35-4.89-6.15-4.61-10.08l1.69-23.89c.37-5.25,5.13-9.08,10.33-8.32l29.11,4.23c4.34.63,7.85,3.86,8.84,8.13l7.66,60.67,15.91-25.68c-17.08-18.44,9.98-28.01,9.98-28.01-5.42-15.22,11.22-14.85,11.22-14.85-.33-13.53,8.09-15.04,13.03-15.04s9.88-8.55,8.93-9.5-11.21-1.14-14.81-1.52c-3.61-.38-9.31-14.63-10.45-18.99-1.14-4.37,10.07-24.69,15.76-26.97s47.41,1.13,47.41,1.13h0s22.84,34.49,23.7,40.56-11.18,25.91-15.54,27.1c-4.36,1.19-19.55,3.34-21.67.4s-7.4-11.74-8.69-12.09c-1.3-.35-6.25,8.19-3.79,12.47s5.34,12.34-6.56,18.79c0,0,8.61,14.25-7.29,17.12,0,0,5.17,28.23-19.32,22.6l-14.35,26.59,56.43-23.57c4.2-1.27,8.75.17,11.45,3.62l18.16,23.14c3.25,4.14,2.3,10.17-2.07,13.11l-19.87,13.36c-3.27,2.2-7.42,2.58-11.04,1.02l-55.94-14.57c-2.98-.78-6.14.33-7.99,2.79l-5.64,7.53,52.21,14.62c4.05.13,7.62,2.72,9.01,6.53h0c1.71,4.69.39,9.95-3.33,13.28l-26.26,23.47c-3.31,2.96-8.19,3.32-11.9.88l-27.94-47.72-22.88,43.16s6.99-.02-6.15,17.23l14.04-4.19c1.38-.41,2.86.16,3.61,1.39l5.41,8.89c.79,1.3.92,2.91.33,4.31l-2.9,6.98c-.86,2.07-3.07,3.24-5.26,2.79l-19.75-4.03-1.75,4.88c-.77,2.13-2.44,3.82-4.56,4.61l-8.07,3c.93,7.99-1.63,16.07-8.23,23.43h0c9.69-1.98,17.84-.31,24.27,4.52l6.66-5.45c1.75-1.44,4.05-2.03,6.28-1.61l5.1.95,6.48-19.09c.72-2.12,2.84-3.44,5.06-3.14l7.49,1.02c1.51.21,2.83,1.12,3.56,2.46l4.95,9.16c.68,1.27.43,2.84-.62,3.82l-10.7,10.01c21.52-2.64,17.98,3.38,17.98,3.38l48.81,2-27.12-48.19c-.24-4.43,2.54-8.47,6.76-9.83l33.51-10.85c4.75-1.54,9.96-.02,13.15,3.82h0c2.59,3.12,3.02,7.51,1.1,11.08l-13.7,52.46,9.35-1.08c3.06-.35,5.61-2.52,6.44-5.49l15.62-55.66c.47-3.91,2.9-7.31,6.44-9.02l21.56-10.43c4.74-2.29,10.43-.07,12.36,4.82l10.83,27.36c1.61,4.08.56,8.73-2.65,11.72l-48.8,36.85,30.19,1.01c7.49-23.99,29.26-5.29,29.26-5.29,10.5-12.28,18.46,2.34,18.46,2.34,11.57-7.02,17.08-.47,19.53,3.81,2.46,4.28,12.33,4.31,12.68,3.01.35-1.3-4.59-10.29-6.06-13.6s8.05-15.35,11.27-18.52c3.22-3.16,26.43-3.56,31.24.24,4.81,3.81,22.11,40.21,22.11,40.21h0Z"/>
    <path class="cls-1" d="M360.38,305.91c-1.6.99-3.15,4.37-3.15,4.37-21.28-13.39-17.28-24.46-17.28-24.46-6.03-2.61-7.12-10.04-7.12-10.04-10.12-3.77-10.35-12.9-12.46-13.16-11.35-1.39-22.57,4.03-22.57,4.03l-3.06-5.17,3.19-6.35s28.07,9.55,19.93-1.86c-8.14-11.41-5.85-20.47-5.85-20.47l-28.73-46.21-34.89,34.17-13.82.31.62-12.82,46-25.33-13.62-17.89-71.77,3.5-8.88-5.16,5.61-10.78,73.27,8.1c-14.77-29.67-22.01-39.93-22.01-39.93-18.76-2.81-12.94-21.93-12.94-21.93-9.94-2.26-7.02-16.38-7.02-16.38-8.24-3.38-4.63-13.83-4.63-13.83,0,0-6.3-9.74-8.61-14.24s-3.7,2.69-8.4,3.56.23-5.84.23-5.84c-6.52-.27-1.42-7.86-1.42-7.86-2.84-9.03,6.44-5.39,6.44-5.39h0s.99-9.11,7.38-2.12c0,0,8.28-.34,5.24,5.44,0,0,8.28-.89,5.17,2.74-3.11,3.62-10.04,1.22-7.3,5.47,2.74,4.26,8,14.6,8,14.6,0,0,10.86,2.13,9.64,10.95,0,0,13.68,4.56,10.64,14.29,0,0,19.46,4.56,12.47,22.2,0,0,5.24,11.41,23.48,39.08l29.79-67.43,12.13.56v10.27s-39.06,60.31-39.06,60.31l8.63,20.76,45.01-27.06,11.4,5.9-7.21,11.79-47.07,13.02,25.54,48.05s8.99,2.57,14.77,15.34,11.61-16.3,11.61-16.3l7.1.43,2.93,5.24s-10.32,6.98-14.82,17.49c-.84,1.96,6.95,6.74,5.12,17.38,0,0,5.87,4.67,5.1,11.2,0,0,11.58,2.1,12.48,27.23,0,0-3.58-.65-5.24.24h0Z"/>
    <path class="cls-1" d="M381.3,305.92c1.59,1,2.44,3.24,2.44,3.24,21.34-13.29,17.4-24.38,17.4-24.38,6.04-2.58,7.17-10,7.17-10,10.14-3.72,10.41-12.85,12.53-13.1,11.36-1.34,22.55,4.14,22.55,4.14l3.08-5.15-3.16-6.37s-28.12,9.42-19.92-1.95c8.2-11.37,5.95-20.45,5.95-20.45l28.95-46.07,34.73,34.34,13.81.38-.56-12.82-45.88-25.56,13.71-17.82,71.75,3.84,8.9-5.11-5.56-10.8-73.31,7.74c14.91-29.6,22.2-39.82,22.2-39.82,18.78-2.72,13.04-21.87,13.04-21.87,9.95-2.21,7.1-16.35,7.1-16.35,8.25-3.34,4.69-13.81,4.69-13.81,0,0,6.35-9.71,8.68-14.2,2.33-4.49,3.69,2.71,8.38,3.6,4.69.89-.2-5.85-.2-5.85,6.52-.24,2.11-7.25,2.11-7.25,2.89-9.02-6.12-4.62-6.12-4.62h0s-1.51-9.85-7.9-2.86c0,0-9.12-.61-6.08,5.17,0,0-8.28-.89-5.17,2.74,3.11,3.62,10.04,1.22,7.3,5.47-2.74,4.26-8,14.6-8,14.6,0,0-10.86,2.13-9.64,10.95,0,0-13.68,4.56-10.64,14.29,0,0-19.46,4.56-12.47,22.2,0,0-5.24,11.41-23.48,39.08l-29.79-67.43-12.13.56v10.27l39.06,60.31-8.63,20.76-45.01-27.06-11.4,5.9,7.21,11.79,47.07,13.02-25.54,48.05s-8.99,2.57-14.77,15.34c-5.78,12.77-11.61-16.3-11.61-16.3l-7.1.43-2.93,5.24s10.32,6.98,14.82,17.49c.84,1.96-6.95,6.74-5.12,17.38,0,0-5.87,4.67-5.1,11.2,0,0-11.58,2.1-12.48,27.23,0,0,3.4-.64,5.06.25h0Z"/>
    <path class="cls-1" d="M380.92,340.99c1.6-.99,3.15-4.37,3.15-4.37,21.28,13.39,17.28,24.46,17.28,24.46,6.03,2.61,7.12,10.04,7.12,10.04,10.12,3.77,10.35,12.9,12.46,13.16,11.35,1.39,22.57-4.03,22.57-4.03l3.06,5.17-3.19,6.35s-28.07-9.55-19.93,1.86c8.14,11.41,5.85,20.47,5.85,20.47l28.73,46.21,34.89-34.17,13.82-.31-.62,12.82-46,25.33,13.62,17.89,71.77-3.5,8.88,5.16-5.61,10.78-73.27-8.1c14.77,29.67,22.01,39.93,22.01,39.93,18.76,2.81,12.94,21.93,12.94,21.93,9.94,2.26,7.02,16.38,7.02,16.38,8.24,3.38,4.63,13.83,4.63,13.83,0,0,6.3,9.74,8.61,14.24s3.7-2.69,8.4-3.56-.23,5.84-.23,5.84c6.52.27,1.42,7.86,1.42,7.86,2.84,9.03-6.44,5.39-6.44,5.39h0s-.99,9.11-7.38,2.12c0,0-8.28.34-5.24-5.44,0,0-8.28.89-5.17-2.74,3.11-3.62,10.04-1.22,7.3-5.47-2.74-4.26-8-14.6-8-14.6,0,0-10.86-2.13-9.64-10.95,0,0-13.68-4.56-10.64-14.29,0,0-19.46-4.56-12.47-22.2,0,0-5.24-11.41-23.48-39.08l-29.79,67.43-12.13-.56v-10.27s39.06-60.31,39.06-60.31l-8.63-20.76-45.01,27.06-11.4-5.9,7.21-11.79,47.07-13.02-25.54-48.05s-8.99-2.57-14.77-15.34-11.61,16.3-11.61,16.3l-7.1-.43-2.93-5.24s10.32-6.98,14.82-17.49c.84-1.96-6.95-6.74-5.12-17.38,0,0-5.87-4.67-5.1-11.2,0,0-11.58-2.1-12.48-27.23,0,0,3.58.65,5.24-.24h0Z"/>
    <path class="cls-1" d="M698.99,324.37s7.97,5.68-1.29,7.69c0,0-3.86,7.33-7.33,1.8,0,0-3.39,7.6-4.96,3.1s3.99-9.29-1.07-9.06-16.64-.41-16.64-.41c0,0-7.29,8.32-14.31,2.84,0,0-10.82,9.54-17.7,2.03,0,0-13.72,14.54-25.46-.36,0,0-12.5-1.2-45.59.68l43.36,59.62-6.58,10.21-8.88-5.16-32.55-64.06-22.29-2.96.81,52.51-10.82,6.89-6.58-12.15,12.37-47.24-54.38-2.03s-6.73,6.49-20.68,5.07c-13.95-1.42,8.27,18.23,8.27,18.23l-3.94,5.92-6-.09s-.85-12.43-7.69-21.6c-1.27-1.71-9.32,2.62-17.61-4.3,0,0-6.99,2.73-12.25-1.21,0,0-7.64,8.96-29.81-2.88,0,0,1.87-2.67,1.94-4.55h0c-.06-1.88-2.31-4.51-2.31-4.51,22.23-11.73,29.83-2.73,29.83-2.73,5.28-3.92,12.25-1.15,12.25-1.15,8.32-6.88,16.35-2.51,17.63-4.21,6.88-9.14,7.79-21.56,7.79-21.56l6-.06,3.91,5.94s-22.31,19.53-8.36,18.19c13.95-1.35,20.66,5.17,20.66,5.17l54.39-1.77-12.14-47.3,6.64-12.12,10.79,6.95-1.06,52.51,22.3-2.85,32.86-63.9,8.9-5.11,6.53,10.24-43.65,59.4c33.08,2.05,45.59.9,45.59.9,11.81-14.85,25.46-.24,25.46-.24,6.92-7.48,17.69,2.11,17.69,2.11,7.04-5.45,14.29,2.91,14.29,2.91,0,0,11.59-.59,16.64-.33s-.48-4.55,1.11-9.05c1.59-4.5,4.95,3.12,4.95,3.12,3.5-5.51,7.51,2.7,7.51,2.7,9.25,2.06,1.45,8.27,1.45,8.27h0Z"/>
    <path class="cls-1" d="M349.63,323.45c.06,1.88,2.64,5.08,2.64,5.08-22.23,11.73-29.83,2.73-29.83,2.73-5.28,3.92-12.25,1.15-12.25,1.15-8.32,6.88-16.35,2.51-17.63,4.21-6.88,9.14-7.79,21.56-7.79,21.56l-6,.06-3.91-5.94s22.31-19.53,8.36-18.19c-13.95,1.35-20.66-5.17-20.66-5.17l-54.39,1.77,12.14,47.3-6.64,12.12-10.79-6.95,1.06-52.51-22.3,2.85-32.86,63.9-8.9,5.11-6.53-10.24,43.65-59.4c-33.08-2.05-45.59-.9-45.59-.9-11.81,14.85-25.46.24-25.46.24-6.92,7.48-17.69-2.11-17.69-2.11-7.04,5.45-14.29-2.91-14.29-2.91,0,0-11.59.59-16.64.33s.48,4.55-1.11,9.05-4.95-3.12-4.95-3.12c-3.5,5.51-7.51-2.7-7.51-2.7-9.25-2.06-1.45-8.27-1.45-8.27h0s-7.97-5.68,1.29-7.69c0,0,3.86-7.33,7.33-1.8,0,0,3.39-7.6,4.96-3.1s-3.99,9.29,1.07,9.06,16.64.41,16.64.41c0,0,7.29-8.32,14.31-2.84,0,0,10.82-9.54,17.7-2.03,0,0,13.72-14.54,25.46.36,0,0,12.5,1.2,45.59-.68l-43.36-59.62,6.58-10.21,8.88,5.16,32.55,64.06,22.29,2.96-.81-52.51,10.82-6.89,6.58,12.15-12.37,47.24,54.38,2.03s6.73-6.49,20.68-5.07c13.95,1.42-8.27-18.23-8.27-18.23l3.94-5.92,6,.09s.85,12.43,7.69,21.6c1.27,1.71,9.32-2.62,17.61,4.3,0,0,6.99-2.73,12.25,1.21,0,0,7.64-8.96,29.81,2.88,0,0-2.19,2.11-2.26,3.99h0Z"/>
    <path class="cls-1" d="M359.99,340.98c-1.59-1-2.44-3.24-2.44-3.24-21.34,13.29-17.4,24.38-17.4,24.38-6.04,2.58-7.17,10-7.17,10-10.14,3.72-10.41,12.85-12.53,13.1-11.36,1.34-22.55-4.14-22.55-4.14l-3.08,5.15,3.16,6.37s28.12-9.42,19.92,1.95c-8.2,11.37-5.95,20.45-5.95,20.45l-28.95,46.07-34.73-34.34-13.81-.38.56,12.82,45.88,25.56-13.71,17.82-71.75-3.84-8.9,5.11,5.56,10.8,73.31-7.74c-14.91,29.6-22.2,39.82-22.2,39.82-18.78,2.72-13.04,21.87-13.04,21.87-9.95,2.21-7.1,16.35-7.1,16.35-8.25,3.34-4.69,13.81-4.69,13.81,0,0-6.35,9.71-8.68,14.2-2.33,4.49-3.69-2.71-8.38-3.6-4.69-.89.2,5.85.2,5.85-6.52.24-2.11,7.25-2.11,7.25-2.89,9.02,6.12,4.62,6.12,4.62h0s1.51,9.85,7.9,2.86c0,0,9.12.61,6.08-5.17,0,0,8.28.89,5.17-2.74s-10.04-1.22-7.3-5.47,8-14.6,8-14.6c0,0,10.86-2.13,9.64-10.95,0,0,13.68-4.56,10.64-14.29,0,0,19.46-4.56,12.47-22.2,0,0,5.24-11.41,23.48-39.08l29.79,67.43,12.13-.56v-10.27l-39.06-60.31,8.63-20.76,45.01,27.06,11.4-5.9-7.21-11.79-47.07-13.02,25.54-48.05s8.99-2.57,14.77-15.34c5.78-12.77,11.61,16.3,11.61,16.3l7.1-.43,2.93-5.24s-10.32-6.98-14.82-17.49c-.84-1.96,6.95-6.74,5.12-17.38,0,0,5.87-4.67,5.1-11.2,0,0,11.58-2.1,12.48-27.23,0,0-3.4.64-5.06-.25h0Z"/>
    <circle class="cls-1" cx="370.66" cy="323.91" r="10.96"/>
    <circle class="cls-2" cx="370.66" cy="323.91" r="4.01"/>
  </g>
</svg>